# xmcd
#
# Track frame offsets: 
#        150
#        22805
#        41720
#        64060
#        91698
#        111718
#        130070
#        151825
#        167283
#        191883
#
# Disc length: 2877 seconds
#
# Revision: 0
# Processed by: cddbd v1.5.2PL0 Copyright (c) Steve Scherf et al.
# Submitted via: ExactAudioCopy v1.0b3
#
DISCID=790b3b0a
DTITLE=Thien Trang - Dong Song Tuoi Ngoc
DYEAR=1995
DGENRE=
TTITLE0=Dong song tuoi ngoc
TTITLE1=Hai loi mong
TTITLE2=Duyen no doi ta
TTITLE3=Cau suong diem co
TTITLE4=Ngay tam biet
TTITLE5=Mong uoc
TTITLE6=Ga chieu
TTITLE7=Tam tinh gui Hue
TTITLE8=Loi ta tu
TTITLE9=Ga chieu pho nho
EXTD=
EXTT0=
EXTT1=
EXTT2=
EXTT3=
EXTT4=
EXTT5=
EXTT6=
EXTT7=
EXTT8=
EXTT9=
PLAYORDER=
